<svg xmlns="http://www.w3.org/2000/svg" version="1.1" xmlns:xlink="http://www.w3.org/1999/xlink" xmlns:svgjs="http://svgjs.dev/svgjs" width="512" height="512"><svg xmlns="http://www.w3.org/2000/svg" xmlns:xlink="http://www.w3.org/1999/xlink" width="512" zoomAndPan="magnify" viewBox="0 0 384 383.999986" height="512" preserveAspectRatio="xMidYMid meet" version="1.0"><defs><clipPath id="SvgjsClipPath1035"><path d="M 61 193 L 145 193 L 145 264 L 61 264 Z M 61 193 " clip-rule="nonzero"></path></clipPath><clipPath id="SvgjsClipPath1034"><path d="M 10.132812 161.816406 L 229.582031 5.808594 L 373.855469 208.75 L 154.410156 364.757812 Z M 10.132812 161.816406 " clip-rule="nonzero"></path></clipPath><clipPath id="SvgjsClipPath1033"><path d="M 10.132812 161.816406 L 229.582031 5.808594 L 373.855469 208.75 L 154.410156 364.757812 Z M 10.132812 161.816406 " clip-rule="nonzero"></path></clipPath><clipPath id="SvgjsClipPath1032"><path d="M 69 106 L 153 106 L 153 189 L 69 189 Z M 69 106 " clip-rule="nonzero"></path></clipPath><clipPath id="SvgjsClipPath1031"><path d="M 10.132812 161.816406 L 229.582031 5.808594 L 373.855469 208.75 L 154.410156 364.757812 Z M 10.132812 161.816406 " clip-rule="nonzero"></path></clipPath><clipPath id="SvgjsClipPath1030"><path d="M 10.132812 161.816406 L 229.582031 5.808594 L 373.855469 208.75 L 154.410156 364.757812 Z M 10.132812 161.816406 " clip-rule="nonzero"></path></clipPath><clipPath id="SvgjsClipPath1029"><path d="M 142 53 L 219 53 L 219 146 L 142 146 Z M 142 53 " clip-rule="nonzero"></path></clipPath><clipPath id="SvgjsClipPath1028"><path d="M 10.132812 161.816406 L 229.582031 5.808594 L 373.855469 208.75 L 154.410156 364.757812 Z M 10.132812 161.816406 " clip-rule="nonzero"></path></clipPath><clipPath id="SvgjsClipPath1027"><path d="M 10.132812 161.816406 L 229.582031 5.808594 L 373.855469 208.75 L 154.410156 364.757812 Z M 10.132812 161.816406 " clip-rule="nonzero"></path></clipPath><clipPath id="SvgjsClipPath1026"><path d="M 148 153 L 323 153 L 323 327 L 148 327 Z M 148 153 " clip-rule="nonzero"></path></clipPath><clipPath id="SvgjsClipPath1025"><path d="M 10.132812 161.816406 L 229.582031 5.808594 L 373.855469 208.75 L 154.410156 364.757812 Z M 10.132812 161.816406 " clip-rule="nonzero"></path></clipPath><clipPath id="SvgjsClipPath1024"><path d="M 10.132812 161.816406 L 229.582031 5.808594 L 373.855469 208.75 L 154.410156 364.757812 Z M 10.132812 161.816406 " clip-rule="nonzero"></path></clipPath><clipPath id="SvgjsClipPath1023"><path d="M 94.539062 217.660156 L 250.203125 107 L 339.761719 232.980469 L 184.101562 343.640625 Z M 94.539062 217.660156 " clip-rule="nonzero"></path></clipPath><clipPath id="SvgjsClipPath1022"><path d="M 228 73 L 296 73 L 296 158 L 228 158 Z M 228 73 " clip-rule="nonzero"></path></clipPath><clipPath id="SvgjsClipPath1021"><path d="M 10.132812 161.816406 L 229.582031 5.808594 L 373.855469 208.75 L 154.410156 364.757812 Z M 10.132812 161.816406 " clip-rule="nonzero"></path></clipPath><clipPath id="SvgjsClipPath1020"><path d="M 10.132812 161.816406 L 229.582031 5.808594 L 373.855469 208.75 L 154.410156 364.757812 Z M 10.132812 161.816406 " clip-rule="nonzero"></path></clipPath><clipPath id="SvgjsClipPath1019"><path d="M 333.089844 332.578125 L 378.542969 332.578125 L 378.542969 378.027344 L 333.089844 378.027344 Z M 333.089844 332.578125 " clip-rule="nonzero"></path></clipPath><clipPath id="SvgjsClipPath1018"><path d="M 355.816406 332.578125 C 343.265625 332.578125 333.089844 342.75 333.089844 355.304688 C 333.089844 367.855469 343.265625 378.027344 355.816406 378.027344 C 368.367188 378.027344 378.542969 367.855469 378.542969 355.304688 C 378.542969 342.75 368.367188 332.578125 355.816406 332.578125 Z M 355.816406 332.578125 " clip-rule="nonzero"></path></clipPath></defs><rect x="-38.4" width="460.8" fill="#ffffff" y="-38.399999" height="460.799983" fill-opacity="1"></rect><rect x="-38.4" width="460.8" fill="#49326b" y="-38.399999" height="460.799983" fill-opacity="1"></rect><g clip-path="url(#506923266d)"><g clip-path="url(#6430898b87)"><g clip-path="url(#11ecedd60d)"><path fill="#fefefe" d="M 134.351562 255.707031 C 134.796875 255.3125 135.25 254.921875 135.714844 254.554688 C 140.496094 250.097656 143.320312 244.222656 144.074219 237.746094 C 144.71875 232.546875 143.90625 227.402344 141.828125 222.171875 C 140.265625 218.03125 137.664062 214.011719 134.347656 210.570312 C 128 203.492188 119.808594 198.378906 110.101562 195.652344 C 107.035156 194.769531 103.722656 194.0625 100.359375 193.792969 C 92.820312 193.136719 86.378906 194.285156 80.28125 196.726562 C 76.359375 198.496094 72.988281 200.523438 70.027344 203.433594 C 65.402344 208.109375 62.621094 213.582031 61.847656 220.039062 C 61.222656 225.261719 62.191406 231.027344 64.703125 236.3125 C 65.929688 239.160156 67.402344 241.796875 69.316406 244.082031 L 69.878906 244.773438 C 70.472656 245.449219 71.035156 246.140625 71.625 246.8125 L 72.171875 247.480469 C 76.816406 252.53125 82.390625 256.367188 88.683594 259.222656 C 93.570312 261.324219 98.734375 262.796875 103.949219 263.460938 C 111.25 264.292969 118.054688 263.609375 124.15625 261.167969 C 128.269531 260.03125 131.597656 257.992188 134.351562 255.707031 " fill-opacity="1" fill-rule="nonzero"></path></g></g></g><g clip-path="url(#01af0608b8)"><g clip-path="url(#4532e58016)"><g clip-path="url(#48af41cdb2)"><path fill="#fefefe" d="M 89.738281 175.929688 C 95.324219 180.710938 101.359375 184.074219 107.609375 186.195312 C 113.855469 188.316406 119.484375 189.054688 125.324219 188.550781 C 130.265625 188.320312 134.757812 186.949219 138.804688 184.433594 L 140.742188 183.058594 C 144.617188 180.300781 147.5625 176.75 149.160156 172.332031 C 151.105469 168.398438 152.117188 163.667969 152.300781 158.796875 C 152.589844 152.03125 150.984375 145.152344 147.476562 138.164062 C 145.824219 135.328125 144.171875 132.492188 142.105469 129.585938 C 140.558594 127.410156 138.765625 125.402344 136.972656 123.390625 C 133.734375 119.863281 130.183594 116.917969 126.148438 114.316406 C 119.421875 109.984375 112.414062 107.308594 105.300781 106.535156 C 100.085938 105.867188 95.144531 106.097656 90.652344 107.46875 C 84.84375 109.042969 80.070312 112.074219 76.332031 116.554688 C 72.660156 120.621094 70.507812 125.800781 69.699219 131.84375 C 69.03125 137.058594 69.503906 141.824219 70.734375 147.148438 C 72.484375 153.195312 75.128906 158.972656 79.261719 164.785156 C 79.949219 165.753906 80.882812 166.550781 81.914062 168.003906 C 84.222656 170.738281 86.945312 173.539062 89.738281 175.929688 " fill-opacity="1" fill-rule="nonzero"></path></g></g></g><g clip-path="url(#1f0f341b9a)"><g clip-path="url(#e94be49cee)"><g clip-path="url(#250d57ce32)"><path fill="#fefefe" d="M 166.613281 138.414062 C 171.75 142.054688 176.925781 144.207031 182.554688 144.945312 C 189.84375 145.964844 196.652344 144.769531 202.636719 140.878906 L 204.089844 139.84375 C 206.992188 137.78125 209.140625 135.160156 212.046875 133.09375 C 214.960938 128.472656 216.871094 123.464844 218.09375 117.492188 C 219.144531 111.277344 219.125 105.097656 218.03125 98.945312 C 216.53125 90.167969 213.40625 82.179688 208.484375 74.742188 C 205.554688 70.625 202.386719 66.679688 198.835938 63.734375 C 194.007812 59.511719 189.386719 56.601562 184.140625 54.859375 C 175.476562 51.90625 167.253906 52.648438 159.78125 56.5 C 159.539062 56.671875 159.539062 56.671875 159.296875 56.84375 L 153.726562 60.804688 C 150.925781 63.523438 148.222656 66.902344 146.519531 70.667969 C 144.195312 75.601562 142.800781 81.332031 142.40625 87.445312 C 141.945312 93.972656 142.964844 100.539062 144.816406 107.242188 C 146.5625 113.292969 149.453125 118.894531 152.828125 124.152344 C 154.375 126.332031 155.925781 128.511719 157.71875 130.519531 C 160.613281 133.566406 163.578125 136.199219 166.613281 138.414062 " fill-opacity="1" fill-rule="nonzero"></path></g></g></g><g clip-path="url(#9bea9dfbb4)"><g clip-path="url(#b1471097ca)"><g clip-path="url(#67c0f727e9)"><g clip-path="url(#06f3e39547)"><path fill="#fefefe" d="M 285.8125 176.90625 C 279.394531 174.542969 272.421875 172.9375 265.0625 172.332031 C 259.851562 171.664062 254.460938 170.753906 249.390625 169.257812 C 243.898438 167.691406 238.480469 165.710938 233.890625 163.871094 L 230.300781 162.410156 C 226.710938 160.949219 223.292969 159.734375 219.707031 158.277344 C 214.285156 156.296875 209.625 154.867188 205.242188 154.339844 C 197.539062 153.25 190.144531 154.132812 183.058594 156.984375 C 178.492188 158.773438 174.207031 161.457031 170.328125 164.210938 C 166.695312 166.792969 163.582031 170.101562 161.222656 173.964844 C 158.3125 178.589844 156.570312 183.835938 155.28125 190.222656 C 154.652344 193.953125 154.121094 198.335938 153.9375 203.207031 C 153.753906 208.078125 153.8125 212.773438 153.875 217.472656 L 154.039062 220.273438 C 153.886719 226.214844 154.078125 232.640625 153.445312 238.925781 C 152.949219 244.378906 152.179688 248.9375 151.234375 253.253906 C 149.910156 258.570312 148.933594 264.375 148.847656 269.898438 C 148.589844 277.742188 149.644531 285.375 151.667969 292.324219 C 153.210938 297.058594 155.238281 301.453125 157.75 305.5 C 159.921875 309.0625 162.742188 312.523438 165.710938 315.152344 C 174.015625 322.738281 183.785156 326.734375 195.078125 326.722656 C 201.675781 326.773438 207.898438 325.265625 213.8125 321.789062 C 214.710938 321.515625 215.195312 321.171875 215.921875 320.65625 L 219.554688 318.070312 C 221.734375 316.523438 223.742188 314.730469 225.265625 313.285156 C 229.421875 308.871094 233.402344 304.21875 236.902344 299.90625 L 237.144531 299.734375 C 240.574219 295.839844 243.828125 291.699219 247.429688 288.046875 C 248.953125 286.601562 250.789062 284.566406 252.96875 283.015625 C 255.871094 280.949219 258.539062 279.054688 261.132812 277.578125 C 264.867188 275.652344 269.257812 273.621094 274.0625 271.664062 C 276.347656 270.773438 279.042969 269.949219 281.324219 269.054688 C 284.503906 267.886719 287.929688 266.550781 291.351562 265.210938 C 294.773438 263.871094 298.4375 262.359375 301.828125 259.949219 L 307.640625 255.816406 C 308.125 255.472656 308.195312 255.054688 308.164062 253.988281 C 309.617188 252.953125 311.140625 251.503906 312.246094 249.988281 C 315.433594 246.265625 318.105469 241.8125 319.84375 236.566406 C 322.277344 229.734375 323.054688 222.617188 321.859375 215.808594 C 320.5625 208.347656 317.640625 201.671875 312.75 195.308594 C 309.925781 191.847656 306.273438 188.246094 302.066406 185.40625 C 297.339844 181.835938 292.0625 179.023438 285.8125 176.90625 " fill-opacity="1" fill-rule="nonzero"></path></g></g></g></g><g clip-path="url(#37181d1518)"><g clip-path="url(#1139c4bffb)"><g clip-path="url(#51f4531a72)"><path fill="#fefefe" d="M 281.996094 81.835938 C 277.832031 77.722656 272.699219 74.917969 267.539062 73.808594 C 261.191406 72.417969 255.128906 73.226562 249.195312 76.058594 C 245.449219 77.921875 242.449219 80.417969 239.46875 83.558594 C 235.15625 88.519531 231.980469 94.203125 230.125 101.542969 C 229.273438 104.808594 228.851562 108.167969 228.675781 111.355469 C 228.0625 121.414062 230.199219 130.835938 234.78125 139.171875 C 236.960938 143.417969 239.902344 147.199219 243.304688 150.03125 C 247.5625 153.714844 252.128906 156.1875 257.273438 157.273438 C 263.640625 158.6875 270.113281 157.949219 275.894531 154.898438 C 276.394531 154.578125 276.914062 154.28125 277.433594 153.988281 C 280.496094 152.136719 283.511719 149.667969 285.914062 146.171875 C 290.226562 141.210938 293.105469 135.003906 294.746094 127.824219 C 295.828125 122.679688 296.113281 117.335938 295.730469 112.03125 C 295.105469 105.148438 293.308594 98.621094 290.066406 92.578125 L 289.640625 91.820312 C 289.171875 91.0625 288.730469 90.285156 288.261719 89.523438 L 287.820312 88.746094 C 286.289062 86.183594 284.261719 83.945312 281.996094 81.835938 " fill-opacity="1" fill-rule="nonzero"></path></g></g></g><g clip-path="url(#eb4b20185c)"><g clip-path="url(#f875d1f8e4)"></g></g></svg><style>@media (prefers-color-scheme: light) { :root { filter: none; } }
@media (prefers-color-scheme: dark) { :root { filter: none; } }
</style></svg>